<?xml version="1.0" standalone="no"?>
<!DOCTYPE svg PUBLIC "-//W3C//DTD SVG 20010904//EN"
 "http://www.w3.org/TR/2001/REC-SVG-20010904/DTD/svg10.dtd">
<svg version="1.0" xmlns="http://www.w3.org/2000/svg"
 width="512.000000pt" height="512.000000pt" viewBox="0 0 512.000000 512.000000"
 preserveAspectRatio="xMidYMid meet">
<metadata>
Created by potrace 1.11, written by Peter Selinger 2001-2013
</metadata>
<g transform="translate(0.000000,512.000000) scale(0.100000,-0.100000)"
fill="#000000" stroke="none">
<path d="M2088 4935 c-23 -13 -26 -19 -18 -44 6 -22 5 -28 -4 -25 -7 3 -13 -2
-13 -11 0 -8 5 -15 11 -15 6 0 5 -4 -2 -9 -15 -9 -18 -38 -7 -63 4 -11 3 -18
-5 -18 -6 0 -8 -5 -4 -12 6 -9 3 -9 -9 0 -15 12 -15 11 -7 -17 5 -20 5 -29 -1
-26 -5 4 -7 -9 -4 -32 4 -28 3 -34 -4 -23 -9 13 -11 13 -11 -2 0 -10 5 -18 10
-18 7 0 7 -7 0 -21 -7 -11 -9 -27 -6 -35 3 -7 0 -13 -6 -11 -6 1 -13 -4 -15
-10 -3 -7 1 -13 7 -13 7 0 5 -6 -4 -16 -12 -12 -13 -20 -6 -35 6 -11 7 -19 3
-18 -22 4 -25 -3 -7 -17 10 -8 13 -12 5 -8 -11 5 -13 3 -8 -10 4 -9 3 -15 -2
-12 -5 3 -12 -1 -15 -10 -8 -22 -8 -26 3 -20 14 9 7 -19 -9 -40 -13 -16 -13
-17 0 -9 13 8 13 7 1 -8 -7 -9 -9 -17 -4 -17 5 0 10 -7 10 -15 0 -13 -3 -13
-19 2 -11 9 -18 11 -18 5 0 -7 4 -12 9 -12 14 0 21 -29 9 -36 -7 -4 -8 -3 -4
4 4 7 2 12 -3 12 -14 0 -14 -17 -1 -25 5 -3 7 -12 4 -20 -4 -8 -10 -13 -14
-10 -10 6 0 -36 12 -51 5 -7 2 -16 -7 -24 -8 -7 -13 -16 -10 -20 3 -5 -1 -15
-9 -23 -11 -11 -12 -17 -3 -27 9 -10 9 -11 -1 -5 -10 5 -13 2 -11 -11 2 -11 0
-25 -4 -31 -5 -8 -4 -13 3 -13 7 0 8 -6 1 -18 -7 -13 -6 -23 1 -30 7 -7 8 -12
4 -12 -5 0 -15 8 -22 18 -10 13 -12 14 -11 2 2 -8 6 -21 10 -27 5 -8 3 -13 -4
-13 -8 0 -7 -5 2 -17 8 -9 9 -14 3 -10 -7 4 -11 -6 -12 -28 -1 -20 -6 -44 -12
-55 -6 -11 -8 -25 -5 -30 3 -6 2 -10 -3 -10 -6 0 -8 -9 -5 -20 3 -13 0 -20 -8
-20 -11 0 -11 -3 1 -11 12 -8 12 -12 2 -16 -9 -4 -10 -8 -2 -18 8 -10 8 -15
-1 -20 -6 -4 -15 -1 -20 6 -5 8 -9 9 -9 3 0 -16 25 -35 35 -26 5 4 5 1 1 -6
-4 -7 -11 -10 -16 -7 -4 3 -11 -2 -14 -11 -4 -10 -2 -13 6 -8 7 5 8 3 2 -7 -5
-8 -7 -22 -5 -33 1 -10 -2 -16 -7 -12 -5 3 -7 -6 -4 -20 3 -16 -1 -30 -9 -35
-8 -5 -9 -9 -3 -9 6 0 11 -7 11 -15 0 -11 -3 -12 -14 -3 -11 9 -12 6 -3 -16 7
-19 7 -25 0 -21 -7 4 -9 -3 -6 -19 3 -15 0 -26 -6 -26 -6 0 -5 -7 3 -17 12
-14 12 -16 0 -8 -11 6 -13 4 -8 -8 4 -12 1 -17 -11 -17 -14 0 -15 -2 -2 -9 8
-6 19 -7 25 -3 5 3 4 -2 -4 -11 -16 -20 -25 -23 -15 -4 4 6 3 8 -1 4 -13 -12
-15 -37 -2 -37 6 0 2 -7 -9 -16 -10 -8 -13 -13 -6 -9 19 10 14 -13 -5 -25 -17
-11 -17 -11 0 -6 9 3 17 1 17 -4 0 -6 -5 -10 -11 -10 -8 0 -7 -5 1 -15 11 -13
10 -14 -2 -10 -10 4 -17 -1 -21 -15 -4 -18 -3 -19 9 -9 12 10 13 9 8 -5 -3 -9
-9 -16 -13 -16 -4 0 -7 -10 -6 -22 1 -13 -3 -29 -9 -37 -7 -10 -8 -13 0 -8 6
3 11 0 11 -8 0 -8 -4 -12 -9 -9 -7 4 -13 -26 -9 -48 0 -5 -5 -8 -11 -8 -9 0
-8 -4 2 -10 10 -7 11 -13 5 -17 -6 -5 -10 -17 -10 -28 0 -11 -5 -31 -13 -44
-8 -13 -10 -21 -4 -17 5 3 12 -1 15 -9 4 -9 1 -12 -7 -9 -7 3 -16 -2 -19 -10
-4 -11 -1 -13 11 -10 16 5 16 5 0 -9 -12 -9 -14 -17 -7 -24 8 -8 7 -13 -2 -18
-8 -6 -10 -4 -4 5 5 9 4 11 -4 6 -6 -4 -8 -13 -4 -19 13 -21 12 -39 -2 -33 -9
3 -12 0 -8 -10 3 -7 -1 -14 -8 -14 -7 0 -9 -3 -6 -6 4 -4 15 -1 24 7 14 10 16
10 6 0 -6 -7 -9 -21 -6 -30 4 -12 3 -13 -5 -3 -7 11 -10 11 -15 -2 -4 -9 -1
-16 6 -16 7 0 8 -3 2 -8 -15 -11 -17 -32 -3 -32 9 0 8 -3 -2 -9 -8 -6 -19 -7
-25 -5 -5 3 -1 -2 9 -10 11 -9 14 -16 8 -16 -7 0 -12 -7 -12 -16 0 -9 -5 -12
-12 -8 -7 5 -8 3 -3 -6 6 -10 11 -9 22 5 7 11 13 14 13 8 0 -6 -7 -16 -15 -23
-9 -7 -14 -19 -11 -25 2 -7 -3 -23 -11 -36 -9 -12 -11 -19 -5 -15 7 4 12 2 12
-3 0 -6 -6 -11 -12 -11 -10 0 -10 -2 0 -9 11 -6 10 -10 -3 -15 -13 -5 -15 -9
-6 -20 9 -10 8 -15 -3 -19 -14 -6 -14 -56 1 -80 4 -7 -1 -6 -10 2 -15 12 -17
12 -12 0 3 -8 7 -31 8 -52 3 -29 1 -34 -10 -25 -11 9 -12 7 -7 -7 5 -11 3 -16
-2 -12 -6 3 -9 -9 -7 -30 1 -20 -3 -43 -10 -52 -8 -10 -8 -13 0 -8 13 8 12
-18 -2 -30 -4 -4 -5 -2 -1 5 10 18 1 15 -15 -5 -8 -9 -9 -14 -3 -10 7 4 14 1
16 -6 7 -17 -2 -38 -12 -32 -5 3 -11 1 -15 -5 -3 -5 1 -10 10 -10 13 0 14 -4
5 -20 -6 -11 -8 -25 -5 -30 3 -6 -1 -10 -9 -10 -11 0 -15 -7 -12 -22 2 -13 -1
-31 -6 -42 -7 -13 -7 -16 1 -12 6 4 11 2 11 -3 0 -6 -4 -11 -8 -11 -5 0 -8
-10 -7 -23 1 -12 -3 -25 -9 -29 -8 -5 -7 -8 1 -8 7 0 10 -7 6 -16 -5 -13 -7
-13 -14 -2 -6 9 -9 9 -9 1 0 -6 7 -18 15 -26 13 -13 13 -16 -1 -21 -10 -4 -13
-2 -8 6 4 7 3 8 -5 4 -8 -6 -9 -12 -2 -20 6 -7 8 -16 4 -20 -11 -11 -14 -48
-3 -41 6 4 5 -4 -1 -19 -7 -14 -17 -22 -23 -19 -6 4 -4 -2 4 -12 9 -11 10 -16
3 -11 -7 4 -13 3 -13 -3 0 -5 8 -12 18 -14 15 -4 15 -5 -2 -6 -12 -1 -16 -6
-12 -16 3 -8 0 -15 -7 -15 -8 0 -8 -3 2 -9 11 -7 11 -9 0 -13 -12 -4 -11 -8 1
-23 8 -11 10 -16 3 -11 -9 5 -12 -1 -9 -24 3 -26 1 -29 -12 -18 -12 10 -14 10
-8 1 4 -8 2 -13 -6 -13 -9 0 -9 -3 2 -10 13 -9 13 -11 0 -20 -12 -8 -12 -10
-1 -10 11 0 11 -4 -1 -23 -8 -12 -13 -37 -11 -55 3 -19 0 -32 -7 -32 -7 0 -10
-15 -7 -40 2 -25 0 -37 -6 -33 -6 4 -8 0 -4 -10 3 -10 2 -17 -3 -17 -6 0 -10
-5 -10 -11 0 -5 4 -8 8 -5 5 3 9 -1 9 -9 0 -8 -4 -12 -9 -9 -4 3 -8 -3 -8 -13
0 -11 -6 -25 -12 -32 -10 -11 -10 -13 0 -7 13 8 17 -6 5 -18 -11 -11 -12 -106
0 -106 6 0 7 -3 4 -6 -4 -4 -14 -1 -23 7 -16 13 -17 11 -12 -13 3 -16 1 -28
-3 -28 -5 0 -6 -6 -3 -14 3 -8 0 -24 -6 -36 -10 -18 -9 -21 1 -14 7 4 2 -8
-11 -27 -15 -21 -18 -29 -7 -20 22 17 23 -2 1 -23 -10 -10 -11 -16 -3 -16 8 0
8 -5 -2 -17 -12 -15 -12 -16 1 -8 12 6 13 5 3 -6 -7 -7 -13 -27 -13 -44 0 -17
-6 -37 -13 -44 -10 -11 -9 -13 3 -7 10 5 10 3 -2 -6 -15 -13 -15 -15 0 -26 15
-10 15 -11 -3 -5 -15 5 -17 3 -9 -6 14 -15 6 -53 -9 -44 -6 4 -7 1 -1 -8 12
-20 14 -38 3 -45 -5 -3 -6 -10 -3 -16 4 -6 2 -8 -4 -4 -15 9 -20 -14 -11 -47
5 -19 4 -25 -3 -21 -7 5 -9 -2 -6 -20 4 -18 1 -26 -8 -26 -15 0 -15 -21 1 -32
6 -5 5 -8 -4 -8 -11 0 -11 -3 0 -17 12 -14 12 -16 0 -8 -11 6 -13 3 -9 -13 4
-14 2 -20 -5 -15 -6 4 -8 0 -4 -9 3 -9 0 -21 -6 -27 -8 -8 -8 -11 1 -11 7 0
12 -5 12 -11 0 -5 -4 -8 -9 -5 -5 3 -11 -1 -14 -9 -4 -10 -1 -12 11 -9 9 3 6
-1 -7 -9 -18 -11 -20 -16 -10 -20 12 -5 12 -7 0 -15 -9 -7 -10 -12 -2 -16 6
-4 11 -17 11 -29 0 -18 2 -19 10 -7 5 8 10 11 10 7 0 -4 10 -2 23 4 21 12 21
11 7 -6 -14 -17 -13 -18 3 -12 10 4 21 7 23 7 3 0 2 6 -2 13 -5 8 -2 8 9 -2
16 -12 22 -8 18 12 -1 5 3 6 9 2 6 -3 8 -10 5 -15 -7 -12 17 -18 40 -10 11 4
26 3 34 -4 11 -8 13 -8 8 0 -4 7 2 12 18 12 16 0 22 -5 18 -12 -5 -7 -2 -7 8
1 15 12 36 12 56 0 6 -4 15 -2 19 4 4 8 3 9 -4 5 -18 -11 -14 0 5 15 11 10 14
10 9 2 -4 -8 -2 -13 4 -13 6 0 8 -5 4 -11 -5 -8 -1 -8 13 0 14 7 23 7 30 0 8
-8 13 -7 18 2 5 8 4 10 -3 5 -18 -11 -14 0 5 15 11 10 14 10 9 2 -4 -8 -2 -13
4 -13 6 0 8 -5 4 -11 -3 -6 6 -3 22 7 28 18 29 18 14 -1 -14 -17 -13 -18 3
-12 10 4 21 7 23 7 3 0 2 5 -2 12 -5 7 -3 8 7 2 33 -20 96 -19 131 2 8 5 7 0
-2 -11 -14 -17 -13 -18 3 -12 10 4 21 7 23 7 3 0 2 5 -2 12 -5 7 -3 8 7 2 25
-15 48 -18 104 -10 11 1 25 -2 32 -6 7 -6 14 -4 19 3 4 8 3 9 -4 5 -18 -11
-14 0 5 15 11 10 14 10 9 2 -4 -8 -2 -13 4 -13 6 0 8 -4 5 -10 -3 -6 1 -7 9
-4 9 3 13 11 9 18 -5 7 -2 7 8 -1 12 -10 15 -7 17 15 1 15 7 29 13 31 5 1 2 9
-8 17 -15 12 -15 13 -2 8 20 -6 34 11 18 22 -8 5 -9 3 -4 -6 6 -9 4 -11 -5 -5
-10 6 -9 11 5 22 14 9 15 13 4 13 -10 1 -9 5 5 15 11 8 14 15 8 15 -7 0 -12 7
-12 16 0 8 4 13 8 10 5 -3 9 1 9 9 0 8 -5 11 -11 8 -7 -4 -6 -1 1 8 6 8 12 19
13 24 1 6 6 9 12 7 5 -1 7 2 3 8 -3 6 -10 8 -14 6 -4 -3 -8 1 -8 8 0 9 7 12
16 8 14 -5 14 -4 1 13 -9 11 -10 16 -2 11 6 -4 12 -2 12 3 0 6 -5 11 -11 11
-8 0 -8 4 -2 12 6 7 9 23 8 35 -1 13 2 23 7 23 5 0 3 10 -3 23 -11 19 -10 20
3 10 12 -10 15 -10 15 2 0 8 -4 15 -9 15 -5 0 -6 5 -3 10 4 6 11 7 17 4 6 -4
6 2 -1 15 -8 14 -8 21 -1 21 5 0 10 5 10 11 0 5 -5 7 -11 3 -8 -4 -8 0 0 15 7
11 9 21 5 21 -4 0 1 9 12 21 10 11 14 20 9 19 -24 -5 -25 2 -4 21 13 11 19 18
13 15 -7 -3 -17 1 -24 9 -11 13 -10 14 6 8 17 -6 18 -5 4 12 -8 10 -10 16 -3
12 17 -11 27 11 13 28 -9 11 -9 15 -1 15 6 0 11 5 11 11 0 5 -6 7 -12 3 -7 -4
-4 3 7 16 11 13 15 21 9 17 -6 -3 -11 1 -11 9 0 9 6 13 15 9 12 -4 13 -3 2 10
-11 13 -10 14 5 9 13 -5 16 -4 11 4 -4 7 -3 12 2 12 6 0 13 -7 16 -16 6 -15 8
-15 25 0 12 11 21 13 25 7 4 -5 15 -9 26 -8 10 1 16 5 13 10 -3 5 7 1 23 -9
29 -18 29 -18 14 1 -8 11 -10 17 -6 13 5 -4 15 -3 23 4 11 8 12 7 7 -6 -7 -18
15 -19 28 -1 5 6 8 4 8 -5 0 -13 1 -13 10 0 5 8 10 10 10 4 0 -11 29 -11 78 0
12 3 20 1 17 -3 -8 -14 61 -7 78 7 14 12 16 11 12 -8 -4 -19 -2 -20 11 -9 18
15 47 21 39 9 -5 -9 36 -7 83 4 13 3 20 1 17 -5 -11 -16 7 -10 21 8 13 17 14
17 7 -2 -6 -18 -5 -19 12 -5 10 8 16 10 12 4 -4 -7 0 -15 9 -18 10 -4 13 -2 8
6 -5 8 -2 9 9 5 10 -3 17 -2 17 3 0 6 5 10 11 10 5 0 8 -4 5 -8 -9 -15 59 -7
72 8 10 13 11 13 6 -2 -5 -13 -1 -16 16 -13 19 4 20 2 8 -12 -12 -15 -11 -15
11 -4 13 7 21 8 17 3 -3 -6 -2 -14 4 -17 8 -5 7 -11 -1 -21 -9 -11 -8 -18 2
-31 10 -11 10 -14 2 -9 -7 4 -13 2 -13 -3 0 -6 5 -11 11 -11 8 0 9 -4 0 -13
-6 -8 -7 -17 -3 -21 8 -8 9 -14 11 -52 0 -14 5 -23 10 -19 5 3 13 0 17 -6 4
-7 3 -9 -4 -5 -6 3 -13 2 -17 -4 -3 -5 -1 -10 6 -10 8 0 7 -5 -2 -17 -9 -10
-9 -14 -2 -10 9 6 11 -2 9 -28 -2 -24 2 -35 11 -35 8 0 11 -5 8 -10 -4 -6 -11
-8 -16 -5 -5 3 -6 -1 -3 -9 3 -9 10 -16 14 -16 4 0 10 -7 14 -15 4 -13 2 -14
-14 -5 -16 9 -18 8 -14 -5 4 -8 10 -15 15 -15 5 0 9 -11 9 -24 0 -14 5 -28 10
-31 8 -5 7 -12 -2 -23 -10 -12 -10 -16 0 -19 6 -3 9 -10 5 -16 -10 -17 -12
-57 -2 -63 4 -2 6 4 4 15 -3 14 1 18 12 14 12 -5 12 -7 1 -14 -7 -5 -9 -9 -4
-9 4 0 0 -12 -9 -27 -10 -16 -12 -22 -4 -15 24 23 36 6 16 -25 -4 -6 -3 -14 3
-18 5 -3 8 -28 7 -56 -2 -42 0 -47 10 -32 11 14 13 14 13 2 0 -8 -5 -20 -10
-25 -7 -7 -6 -11 4 -11 8 0 12 5 9 10 -3 5 0 7 8 5 8 -3 23 -1 34 5 19 10 19
9 5 -8 -14 -17 -13 -18 3 -12 10 4 21 7 23 7 3 0 2 6 -2 13 -5 8 -2 8 9 -2 16
-12 22 -8 18 12 -1 5 3 6 9 2 6 -3 8 -10 5 -15 -7 -12 17 -18 40 -10 11 4 26
3 34 -4 11 -8 13 -8 8 0 -4 7 2 11 18 11 16 0 22 -4 18 -11 -5 -7 -2 -7 8 1
15 12 36 12 56 0 6 -4 15 -2 19 4 4 8 3 9 -4 5 -18 -11 -14 0 5 15 11 10 14
10 9 2 -4 -8 -2 -13 4 -13 6 0 8 -5 4 -11 -5 -8 -1 -8 13 0 14 7 23 7 30 0 8
-8 13 -7 18 2 5 8 4 10 -3 5 -18 -11 -14 0 5 15 11 10 14 10 9 2 -4 -8 -2 -13
4 -13 6 0 8 -5 4 -11 -3 -6 6 -3 22 7 28 18 29 18 14 -1 -14 -17 -13 -18 3
-12 10 4 21 7 23 7 3 0 2 5 -2 12 -5 7 -3 8 7 2 33 -20 96 -19 131 2 8 5 7 0
-2 -11 -14 -17 -13 -18 3 -12 10 4 21 7 23 7 3 0 2 5 -2 12 -5 7 -3 8 7 2 25
-15 48 -18 104 -10 11 1 25 -2 32 -6 7 -6 14 -4 19 3 4 8 3 9 -4 5 -18 -11
-14 0 5 15 11 10 14 10 9 1 -4 -7 -2 -12 4 -12 6 0 8 -5 4 -11 -4 -8 -1 -8 12
-1 11 5 25 7 33 4 8 -3 11 0 7 7 -4 6 -1 11 6 11 10 0 10 2 -1 9 -11 7 -11 9
0 14 10 4 10 6 2 6 -7 1 -13 6 -13 12 0 5 5 7 12 3 7 -5 8 -3 2 7 -4 8 -9 21
-11 29 -1 8 -7 16 -12 18 -6 2 -11 8 -11 13 0 4 8 6 18 3 11 -4 9 1 -8 16 -16
14 -19 20 -8 16 12 -3 15 -1 11 9 -3 8 -8 13 -13 10 -4 -2 -5 7 -2 20 3 16 0
25 -9 25 -8 0 -5 6 7 15 19 15 19 15 -1 8 -18 -6 -19 -5 -5 12 8 10 10 16 4
12 -7 -4 -15 0 -18 9 -3 8 -2 13 2 10 4 -2 8 4 8 14 0 10 -3 18 -6 18 -18 -1
-21 4 -10 17 10 12 10 15 0 15 -9 0 -9 4 1 17 8 9 9 14 2 10 -8 -5 -11 3 -9
28 2 24 -1 35 -10 35 -8 0 -14 5 -14 11 0 5 6 7 13 3 9 -6 9 -4 -1 8 -7 9 -13
36 -15 62 -1 25 -5 46 -9 46 -4 0 -4 7 -1 17 4 10 2 14 -5 9 -6 -3 -13 -2 -16
3 -4 5 -1 13 5 17 8 5 9 3 4 -6 -6 -9 -4 -11 4 -6 9 6 9 12 -3 24 -11 13 -12
22 -4 36 9 16 8 18 -8 13 -18 -7 -18 -6 -1 7 17 13 17 14 0 21 -17 7 -17 8 2
15 14 6 16 9 5 10 -8 2 -18 2 -21 2 -3 -1 -5 24 -4 54 1 30 -2 57 -8 61 -6 4
-7 1 -2 -7 5 -8 4 -11 -3 -6 -10 6 -8 46 4 70 3 6 -1 3 -9 -6 -13 -16 -14 -12
-13 37 1 30 -2 55 -7 55 -4 0 -3 9 3 19 7 14 7 22 -2 27 -7 5 -8 3 -3 -7 8
-12 6 -12 -8 0 -18 14 -23 26 -8 16 18 -11 17 31 -1 63 -12 19 -15 32 -8 32 6
0 8 5 3 13 -4 6 -6 21 -4 32 3 17 1 18 -16 5 -16 -14 -17 -13 -5 2 9 12 10 22
4 35 -6 11 -7 25 -1 35 6 11 4 18 -8 23 -15 5 -15 7 -3 15 10 6 11 10 3 10 -9
0 -10 7 -2 26 9 25 8 26 -8 13 -17 -13 -17 -13 -1 12 17 26 17 27 -5 22 -18
-4 -19 -3 -7 6 8 6 10 11 4 11 -17 0 -25 28 -12 36 6 4 8 3 4 -4 -3 -6 -2 -13
3 -16 5 -4 8 2 6 11 -2 10 -4 22 -4 26 -1 5 -5 6 -10 2 -6 -3 -6 6 -1 25 7 23
5 32 -8 40 -14 8 -14 9 -2 10 13 0 13 2 0 9 -8 6 -18 7 -24 4 -5 -4 -6 -1 -2
6 5 7 14 10 22 7 9 -3 7 5 -6 29 -13 24 -15 35 -7 38 9 3 9 7 0 19 -10 11 -10
17 0 27 9 10 8 12 -7 9 -10 -1 -21 3 -23 10 -3 6 0 12 7 12 6 0 8 -5 4 -12 -4
-7 -3 -8 4 -4 6 4 9 13 6 21 -4 8 -11 12 -18 8 -6 -4 -5 1 3 10 12 15 9 21
-11 18 -5 0 -8 3 -8 9 0 5 5 10 10 10 6 0 10 5 10 11 0 5 -4 8 -9 4 -6 -3 -6
6 -1 25 6 21 5 28 -2 24 -6 -4 -8 1 -3 15 5 16 2 21 -11 21 -17 0 -17 1 0 13
16 12 16 14 -4 35 -19 21 -18 27 5 22 5 -1 2 7 -8 17 -12 14 -14 22 -6 30 8 8
7 13 -2 18 -8 5 -10 4 -5 -3 11 -18 0 -14 -15 5 -8 10 -9 14 -2 10 8 -5 11 2
11 23 -1 22 -5 29 -15 26 -9 -4 -11 -1 -7 6 13 20 8 79 -7 89 -8 5 -9 9 -3 9
6 0 11 6 11 14 0 8 -6 12 -15 9 -12 -5 -12 -2 -3 15 10 19 9 22 -6 23 -11 0
-13 3 -5 6 10 4 10 8 0 21 -10 12 -10 14 0 8 7 -4 12 -2 12 8 0 8 -5 18 -10
21 -8 5 -7 12 1 22 11 12 10 14 -5 11 -12 -2 -20 4 -21 15 -2 9 1 15 6 11 5
-3 6 -10 3 -16 -4 -7 -2 -8 4 -4 13 8 5 36 -10 36 -6 0 -4 8 3 17 12 14 12 16
0 8 -11 -6 -13 -4 -8 8 3 9 2 19 -4 23 -6 4 -5 12 3 22 11 13 11 14 -1 7 -11
-6 -13 -4 -8 8 3 10 2 17 -4 17 -6 0 -8 4 -5 9 8 12 -4 42 -13 37 -4 -3 -7 4
-7 14 0 12 5 16 16 12 12 -5 13 -3 4 9 -6 8 -10 22 -9 32 2 9 -1 17 -6 17 -5
0 -9 5 -9 11 0 5 4 8 8 5 5 -3 9 1 9 9 0 8 -5 13 -10 12 -5 -1 -12 4 -15 12
-3 9 0 11 9 7 10 -5 9 -3 -1 6 -21 18 -27 46 -6 29 11 -9 16 -9 22 0 4 7 3 9
-3 6 -18 -11 -35 20 -31 55 2 20 -1 33 -9 33 -6 0 -15 4 -20 9 -4 5 -3 6 3 3
7 -4 17 0 24 8 11 13 10 14 -1 10 -9 -3 -18 5 -25 24 -10 26 -10 28 10 24 18
-4 19 -3 4 6 -12 8 -16 22 -14 51 2 25 -1 37 -7 33 -6 -4 -8 0 -4 10 3 9 1 19
-5 23 -7 5 -8 2 -3 -7 5 -8 4 -10 0 -6 -12 10 -15 38 -4 31 5 -3 9 0 9 5 0 6
-4 11 -9 11 -10 0 -9 25 2 36 3 3 0 16 -7 28 -8 11 -12 29 -11 38 2 9 -3 19
-11 22 -12 5 -13 10 -3 27 8 17 8 20 -1 14 -9 -5 -10 -1 -5 15 6 17 4 21 -6
14 -11 -6 -12 -5 -2 7 10 12 10 18 0 28 -9 11 -9 14 1 18 8 3 5 10 -9 22 -18
15 -20 21 -10 39 10 18 9 23 -4 28 -8 3 -12 10 -9 15 3 5 11 6 17 2 7 -3 4 2
-5 13 -14 16 -15 23 -5 33 9 10 8 11 -8 6 -20 -7 -20 -6 -1 9 11 9 15 16 8 16
-6 0 -9 7 -6 15 4 8 1 15 -6 15 -6 0 -9 -4 -6 -8 2 -4 0 -14 -5 -22 -7 -12 -8
-10 -6 7 2 12 6 25 10 29 3 4 3 14 -2 23 -5 9 -7 33 -6 54 2 39 -3 45 -24 25
-11 -11 -11 -9 0 9 11 18 10 24 -1 38 -12 14 -12 18 1 26 11 7 11 9 0 9 -11 0
-11 3 0 17 8 9 9 14 3 10 -16 -9 -28 41 -14 58 8 10 5 19 -12 36 -13 12 -17
19 -10 15 6 -4 12 -2 12 3 0 6 -8 11 -17 11 -12 0 -14 3 -6 8 6 4 10 19 10 34
-1 14 -5 24 -9 21 -5 -2 -8 1 -8 6 0 6 6 11 12 11 7 0 2 7 -10 16 -13 9 -19
20 -15 27 11 17 12 37 3 37 -4 0 -8 6 -7 13 2 60 -4 87 -20 88 -15 0 -15 2 -3
7 17 8 20 26 6 39 -5 4 -6 3 -2 -4 3 -6 3 -14 -2 -17 -5 -3 -8 15 -7 39 1 25
-2 45 -7 45 -5 0 -6 6 -2 12 11 18 12 48 2 54 -5 3 -3 13 4 22 10 14 10 15 -2
5 -21 -19 -32 -15 -20 7 8 15 8 20 -2 20 -9 0 -9 3 2 10 12 8 12 10 -3 15 -13
5 -14 11 -7 25 13 25 13 33 -2 24 -8 -5 -9 -2 -5 10 5 13 3 17 -6 13 -11 -4
-12 3 -7 34 6 29 4 44 -7 55 -10 9 -11 14 -2 14 8 0 8 5 -2 17 -8 9 -9 14 -3
10 6 -3 11 0 11 8 0 8 -4 12 -9 9 -11 -7 -10 20 2 34 7 9 7 9 -2 2 -7 -5 -15
-10 -19 -10 -8 0 -6 27 4 36 3 3 -2 18 -11 33 -16 25 -16 25 1 12 17 -14 17
-13 5 15 -7 16 -17 32 -22 35 -5 4 -5 12 -2 18 4 6 2 11 -4 11 -6 0 -8 5 -4
12 4 7 3 8 -5 4 -6 -4 -8 -13 -4 -19 4 -7 0 -6 -10 2 -9 7 -17 10 -17 6 0 -4
-6 -2 -14 4 -11 9 -16 9 -22 0 -4 -8 -3 -9 4 -5 18 11 14 0 -5 -15 -11 -10
-14 -10 -9 -1 4 7 2 12 -4 12 -6 0 -8 5 -4 11 5 8 1 8 -13 0 -14 -7 -23 -7
-30 0 -8 8 -13 7 -18 -2 -5 -8 -4 -10 3 -5 18 11 14 0 -5 -15 -11 -10 -14 -10
-9 -1 4 7 2 12 -4 12 -6 0 -8 5 -4 11 3 6 -6 3 -22 -7 -28 -18 -29 -18 -14 1
14 17 13 18 -3 12 -10 -4 -21 -7 -23 -7 -3 0 -2 -5 2 -12 5 -7 3 -8 -7 -2 -33
20 -96 19 -131 -2 -8 -5 -7 0 2 11 14 17 13 18 -3 12 -10 -4 -21 -7 -23 -7 -3
0 -2 -5 2 -12 5 -7 3 -8 -7 -2 -25 15 -48 18 -104 10 -11 -1 -25 2 -32 6 -7 6
-14 4 -19 -3 -4 -8 -3 -9 4 -5 18 11 14 0 -5 -15 -11 -10 -14 -10 -9 -1 4 7 2
12 -4 12 -6 0 -8 5 -4 11 5 8 1 8 -13 0 -14 -7 -23 -7 -30 0 -8 8 -13 7 -18
-2 -5 -8 -4 -10 3 -5 18 11 14 0 -5 -15 -11 -10 -14 -10 -9 -1 4 7 2 12 -4 12
-6 0 -9 4 -6 8 3 5 -1 9 -9 9 -8 0 -12 -4 -10 -7 3 -4 -6 -7 -20 -7 -16 0 -22
4 -18 11 5 8 3 8 -8 0 -8 -6 -24 -14 -37 -17 -20 -5 -22 -3 -10 11 11 14 10
15 -5 9 -10 -4 -21 -7 -23 -7 -3 0 -2 -5 2 -12 5 -7 3 -8 -7 -2 -26 16 -52 19
-91 11 -16 -3 -28 -1 -28 4 0 6 -5 7 -10 4 -8 -5 -7 -12 2 -22 12 -15 11 -15
-9 -3 -12 8 -19 18 -17 22 7 11 4 10 -28 -7z m137 -4 c3 -5 2 -12 -3 -15 -5
-3 -9 1 -9 9 0 17 3 19 12 6z m400 0 c3 -5 2 -12 -3 -15 -5 -3 -9 1 -9 9 0 17
3 19 12 6z m160 0 c3 -5 2 -12 -3 -15 -5 -3 -9 1 -9 9 0 17 3 19 12 6z m-690
-11 c-3 -5 -12 -10 -18 -10 -7 0 -6 4 3 10 19 12 23 12 15 0z m1080 -480 c3
-6 -1 -7 -9 -4 -18 7 -21 14 -7 14 6 0 13 -4 16 -10z m90 -480 c3 -5 2 -10 -4
-10 -5 0 -13 5 -16 10 -3 6 -2 10 4 10 5 0 13 -4 16 -10z m-686 -278 c7 -14 6
-19 -4 -19 -7 0 -11 7 -7 15 4 11 1 13 -8 7 -9 -5 -11 -4 -6 3 10 16 14 15 25
-6z m11 -57 c-8 -22 -7 -27 13 -35 18 -7 19 -9 4 -9 -10 -1 -15 -6 -12 -11 4
-6 10 -8 14 -6 4 3 8 -1 8 -8 0 -8 -7 -12 -16 -9 -13 4 -13 2 2 -10 20 -16 23
-32 5 -21 -10 6 -10 4 0 -8 7 -8 9 -24 5 -33 -4 -13 -3 -16 5 -11 9 5 9 1 2
-18 -7 -18 -6 -26 1 -26 7 0 6 -6 -2 -17 -9 -10 -9 -14 -2 -10 9 6 11 -2 9
-28 -2 -19 0 -32 5 -29 5 3 7 9 4 14 -3 5 -1 11 4 14 4 3 8 -4 7 -17 0 -12 -8
-25 -16 -29 -12 -5 -11 -7 4 -7 11 -1 16 -6 13 -15 -3 -7 0 -19 6 -25 9 -9 7
-11 -8 -6 -20 7 -20 6 -1 -9 11 -9 15 -16 10 -16 -6 0 -11 -7 -11 -15 0 -8 4
-12 9 -9 13 8 6 -29 -7 -38 -6 -4 -2 -8 9 -8 12 0 16 -5 13 -15 -4 -8 -2 -17
3 -20 5 -3 7 -17 4 -31 -3 -19 -1 -24 8 -18 10 6 10 5 0 -8 -9 -12 -10 -18 -2
-23 8 -5 8 -10 0 -20 -8 -10 -8 -15 0 -20 7 -4 9 -18 6 -31 -4 -16 -2 -22 6
-20 7 1 10 1 6 -1 -5 -3 -8 -14 -8 -24 0 -13 -4 -18 -12 -13 -7 4 0 -7 15 -23
19 -21 25 -33 17 -38 -8 -5 -7 -11 2 -23 11 -14 10 -15 -6 -8 -19 7 -19 6 -1
-14 14 -15 15 -20 4 -21 -9 0 -10 -2 -2 -5 7 -3 9 -12 6 -21 -4 -11 -2 -14 5
-9 7 4 12 2 12 -3 0 -6 -8 -12 -17 -12 -17 -1 -17 -2 0 -6 9 -2 17 -9 17 -14
0 -6 -4 -8 -8 -5 -5 3 -9 -1 -9 -9 0 -8 4 -12 9 -9 7 5 11 -21 12 -88 0 -16 4
-28 8 -28 4 0 8 -7 8 -16 0 -9 -5 -12 -12 -8 -9 6 -9 3 1 -9 7 -9 11 -23 8
-32 -4 -8 0 -21 8 -29 8 -7 11 -17 8 -20 -11 -11 -12 -37 -1 -30 5 3 8 -2 7
-12 -2 -11 0 -25 4 -31 5 -8 3 -13 -4 -13 -10 0 -10 -3 -1 -12 16 -16 15 -31
0 -23 -7 4 -4 -1 6 -9 18 -15 15 -20 -9 -17 -5 1 -2 -5 8 -12 18 -15 24 -33 7
-22 -5 3 -7 0 -4 -9 3 -8 13 -12 22 -10 14 5 14 3 -1 -6 -14 -9 -16 -15 -6
-26 9 -11 8 -14 -2 -14 -9 -1 -8 -4 4 -11 14 -8 16 -14 6 -25 -8 -10 -9 -14 0
-14 8 0 9 -5 2 -19 -8 -14 -7 -22 3 -30 7 -6 16 -8 20 -4 4 4 0 -5 -8 -21 -14
-28 -12 -56 4 -56 13 0 20 -29 8 -36 -6 -4 -8 -3 -4 4 3 6 2 13 -3 16 -11 7
-9 -13 3 -32 4 -7 5 -24 2 -37 -3 -13 -2 -26 4 -30 5 -3 7 -12 3 -21 -3 -8 -2
-14 3 -12 5 2 9 -1 9 -7 0 -5 -3 -9 -7 -7 -13 4 -9 -8 7 -24 20 -20 19 -34 -2
-35 -16 -1 -16 -2 0 -6 14 -4 17 -11 13 -29 -4 -16 -2 -24 6 -24 9 0 8 -3 -2
-10 -8 -5 -10 -10 -4 -10 6 0 10 -12 8 -27 -3 -39 -3 -40 -14 -23 -6 10 -10
11 -10 3 0 -7 -7 -13 -16 -13 -9 0 -12 5 -8 12 5 7 3 8 -7 2 -20 -12 -93 -12
-101 0 -5 7 -8 7 -8 -2 0 -8 -8 -10 -26 -6 -19 5 -25 3 -20 -4 5 -8 2 -10 -8
-6 -9 3 -13 11 -9 18 3 6 -4 2 -17 -9 -13 -11 -20 -14 -16 -7 5 8 0 12 -14 12
-12 0 -19 -4 -16 -8 2 -4 -4 -8 -14 -8 -10 0 -17 3 -14 7 2 4 -3 9 -11 13 -8
3 -17 0 -21 -6 -4 -7 -3 -8 4 -4 8 5 10 1 5 -9 -4 -13 -8 -14 -14 -4 -4 7 -19
14 -34 16 -16 2 -24 0 -21 -6 4 -6 -4 -7 -23 -1 -19 5 -33 4 -41 -3 -10 -9
-11 -9 -7 -1 9 15 -20 27 -29 12 -5 -7 -2 -8 6 -3 9 5 11 4 6 -4 -6 -9 -11 -9
-22 0 -8 6 -14 9 -14 5 0 -3 -12 -1 -26 5 -24 8 -25 8 -14 -6 11 -13 10 -14
-4 -9 -24 9 -25 83 0 118 10 14 11 23 2 33 -6 7 -7 13 -2 13 8 0 12 25 15 83
0 9 4 15 9 12 6 -3 7 1 4 9 -3 9 -11 13 -18 9 -6 -3 -1 4 12 16 26 26 30 39 5
20 -16 -13 -16 -11 1 15 10 16 13 25 7 22 -6 -4 -11 -2 -11 3 0 6 5 11 11 11
5 0 7 5 4 10 -4 6 -1 18 7 27 8 10 8 14 1 10 -6 -4 -14 -3 -18 3 -3 5 1 10 10
10 13 0 14 4 4 21 -10 19 -9 20 13 14 12 -3 18 -3 13 2 -14 11 -14 73 -1 73 6
0 4 5 -4 10 -13 9 -13 10 0 10 13 0 13 1 0 10 -12 8 -12 10 -1 10 10 0 11 3 2
14 -9 11 -9 16 0 22 8 5 9 3 4 -6 -5 -9 -4 -11 4 -6 8 5 9 12 3 19 -12 16 -7
48 10 58 9 6 8 9 -5 14 -15 6 -15 9 4 24 16 13 18 21 11 41 -10 27 -5 53 8 45
5 -3 12 0 16 6 4 7 3 9 -3 6 -20 -12 -24 25 -6 46 17 20 17 20 0 14 -11 -4
-16 -3 -12 3 3 6 13 10 21 10 8 0 14 5 14 11 0 5 -4 8 -9 5 -5 -3 -8 5 -7 19
0 14 5 25 10 25 5 0 3 6 -3 14 -10 11 -8 17 6 25 10 6 13 11 6 11 -12 0 -10
37 3 49 4 3 4 -2 1 -12 -4 -11 -3 -16 4 -12 5 4 7 15 4 25 -3 10 -1 21 5 25 8
5 5 14 -7 28 -10 11 -13 17 -7 14 7 -4 14 2 17 13 3 13 1 18 -6 13 -7 -4 -6 1
2 10 11 14 11 17 0 18 -10 0 -11 2 -1 6 6 2 10 9 6 14 -3 5 -1 9 5 9 7 0 7 8
1 26 -8 21 -8 25 3 21 11 -4 13 7 13 49 -1 30 2 54 6 54 4 0 5 7 2 15 -4 9 0
15 7 15 12 0 12 2 0 9 -9 6 -10 11 -2 15 6 4 11 13 11 19 0 8 -3 7 -9 -2 -6
-9 -8 -4 -8 17 1 17 5 28 10 25 4 -2 5 -9 2 -14 -4 -5 -1 -9 5 -9 6 0 8 10 5
23 -4 12 -2 34 3 48 6 15 6 32 1 41 -6 11 -4 20 6 28 14 11 13 15 -2 33 -10
11 -13 17 -7 14 7 -4 15 0 18 9 3 8 10 12 16 9 6 -4 7 1 3 10 -5 13 -7 14 -14
3 -6 -9 -9 -9 -9 -1 0 6 5 15 11 18 6 4 8 13 5 21 -3 8 -1 14 5 14 6 0 6 6 0
19 -6 10 -7 21 -4 25 13 13 14 47 1 41 -7 -4 -4 1 6 9 11 9 16 16 10 16 -5 0
-3 4 4 8 15 10 25 52 11 52 -6 0 -6 7 1 20 9 17 8 19 -7 13 -15 -5 -15 -3 2
11 14 12 16 19 7 22 -17 8 -5 24 18 24 17 0 18 -4 10 -25z m-35 -96 c-4 -5
-12 -9 -18 -8 -9 0 -8 2 1 6 6 2 9 10 6 15 -4 7 -2 8 5 4 6 -4 9 -12 6 -17z
m842 -275 c-3 -3 -12 -4 -19 -1 -8 3 -5 6 6 6 11 1 17 -2 13 -5z m-687 -334
c0 -5 -5 -10 -11 -10 -5 0 -7 5 -4 10 3 6 8 10 11 10 2 0 4 -4 4 -10z m-270
-154 c0 -2 -7 -9 -15 -16 -13 -11 -14 -10 -9 4 5 14 24 23 24 12z m-830 -352
c0 -8 -19 -13 -24 -6 -3 5 1 9 9 9 8 0 15 -2 15 -3z m1217 -339 c0 -8 -4 -12
-9 -9 -5 3 -6 10 -3 15 9 13 12 11 12 -6z m788 5 c3 -5 1 -10 -4 -10 -6 0 -11
5 -11 10 0 6 2 10 4 10 3 0 8 -4 11 -10z m-2088 -86 c-3 -3 -12 -4 -19 -1 -8
3 -5 6 6 6 11 1 17 -2 13 -5z m2236 -719 c4 -8 3 -16 -1 -19 -4 -3 -9 4 -9 15
-2 23 3 25 10 4z m-2056 -1080 c0 -8 -4 -12 -9 -9 -5 3 -6 10 -3 15 9 13 12
11 12 -6z m160 0 c0 -8 -4 -12 -9 -9 -5 3 -6 10 -3 15 9 13 12 11 12 -6z
m1760 0 c0 -8 -4 -12 -9 -9 -5 3 -6 10 -3 15 9 13 12 11 12 -6z m160 0 c0 -8
-4 -12 -9 -9 -5 3 -6 10 -3 15 9 13 12 11 12 -6z"/>
<path d="M2659 3128 c-5 -18 -6 -38 -1 -34 7 8 12 36 6 36 -2 0 -4 -1 -5 -2z"/>
<path d="M2686 2882 c-3 -5 1 -9 9 -9 8 0 12 4 9 9 -3 4 -7 8 -9 8 -2 0 -6 -4
-9 -8z"/>
<path d="M1995 4600 c-3 -5 -1 -10 4 -10 6 0 11 5 11 10 0 6 -2 10 -4 10 -3 0
-8 -4 -11 -10z"/>
<path d="M1915 4150 c4 -6 11 -8 16 -5 14 9 11 15 -7 15 -8 0 -12 -5 -9 -10z"/>
<path d="M3225 4120 c3 -5 8 -10 11 -10 2 0 4 5 4 10 0 6 -5 10 -11 10 -5 0
-7 -4 -4 -10z"/>
<path d="M1841 3834 c0 -11 3 -14 6 -6 3 7 2 16 -1 19 -3 4 -6 -2 -5 -13z"/>
<path d="M3341 3503 c-1 -17 16 -25 25 -12 4 7 3 9 -4 5 -5 -3 -13 0 -15 6 -4
9 -6 10 -6 1z"/>
<path d="M3496 2707 c3 -10 9 -15 12 -12 3 3 0 11 -7 18 -10 9 -11 8 -5 -6z"/>
<path d="M3796 1122 c-3 -5 1 -9 9 -9 8 0 12 4 9 9 -3 4 -7 8 -9 8 -2 0 -6 -4
-9 -8z"/>
<path d="M3805 1060 c-3 -5 -1 -10 4 -10 6 0 11 5 11 10 0 6 -2 10 -4 10 -3 0
-8 -4 -11 -10z"/>
<path d="M3826 957 c3 -10 9 -15 12 -12 3 3 0 11 -7 18 -10 9 -11 8 -5 -6z"/>
<path d="M2956 922 c-3 -5 1 -9 9 -9 8 0 12 4 9 9 -3 4 -7 8 -9 8 -2 0 -6 -4
-9 -8z"/>
<path d="M1221 607 c-8 -10 -7 -14 2 -14 8 0 14 6 14 14 0 7 -1 13 -2 13 -2 0
-8 -6 -14 -13z"/>
</g>
</svg>
